# xmcd
#
# Track frame offsets:
#	150
#	16998
#	37573
#	47570
#	59483
#	73299
#
# Disc length: 1160 seconds
#
# Revision: 0
# Processed by: cddbd v1.5.1PL2 Copyright (c) Steve Scherf et al.
# Submitted via: dBpowerAMP V4.0
#
DISCID=48048606
DTITLE=Black Rebel Motorcycle Club - Howl Sessions [Limited Edition EP]
DYEAR=2006
DGENRE=
TTITLE0=Grind My Bones
TTITLE1=Mercy
TTITLE2=Wishing Well
TTITLE3=Steal A Ride
TTITLE4=Feel It Now
TTITLE5=Pretend
EXTD=
EXTT0=
EXTT1=
EXTT2=
EXTT3=
EXTT4=
EXTT5=
PLAYORDER=
